<?xml version="1.0" encoding="UTF-8" standalone="no"?>
<!-- Generator: Adobe Illustrator 14.0.0, SVG Export Plug-In . SVG Version: 6.00 Build 43363)  -->

<svg
   xmlns:dc="http://purl.org/dc/elements/1.1/"
   xmlns:cc="http://creativecommons.org/ns#"
   xmlns:rdf="http://www.w3.org/1999/02/22-rdf-syntax-ns#"
   xmlns:svg="http://www.w3.org/2000/svg"
   xmlns="http://www.w3.org/2000/svg"
   xmlns:sodipodi="http://sodipodi.sourceforge.net/DTD/sodipodi-0.dtd"
   xmlns:inkscape="http://www.inkscape.org/namespaces/inkscape"
   version="1.1"
   x="0px"
   y="0px"
   width="504px"
   height="504px"
   viewBox="0 0 504 504"
   enable-background="new 0 0 504 504"
   xml:space="preserve"
   id="svg2"
   inkscape:version="0.48.2 r9819"
   sodipodi:docname="FourLeafClover.svg"><metadata
   id="metadata14"><rdf:RDF><cc:Work
       rdf:about=""><dc:format>image/svg+xml</dc:format><dc:type
         rdf:resource="http://purl.org/dc/dcmitype/StillImage" /><dc:title></dc:title></cc:Work></rdf:RDF></metadata><defs
   id="defs12" /><sodipodi:namedview
   pagecolor="#ffffff"
   bordercolor="#666666"
   borderopacity="1"
   objecttolerance="10"
   gridtolerance="10"
   guidetolerance="10"
   inkscape:pageopacity="0"
   inkscape:pageshadow="2"
   inkscape:window-width="1366"
   inkscape:window-height="716"
   id="namedview10"
   showgrid="false"
   inkscape:zoom="1.3244222"
   inkscape:cx="138.6111"
   inkscape:cy="232.59087"
   inkscape:window-x="-8"
   inkscape:window-y="-8"
   inkscape:window-maximized="1"
   inkscape:current-layer="svg2" />

<g
   id="g2991"
   transform="matrix(0.99895833,-0.04563169,0.04563169,0.99895833,-10.452902,11.351628)"><g
     transform="matrix(0.86995621,-0.49312898,0.49312898,0.86995621,-90.959023,157.17299)"
     id="Layer_2">
	<path
   inkscape:connector-curvature="0"
   id="path5"
   d="m 238.5,163.5 c 0,0 -5.5,-56 26.5,-79 0,0 14.5,-16 35.5,-2.5 0,0 16,9 23.5,18.5 0,0 11,12 28,15 0,0 29,4.5 33,28.5 0,0 5.5,20.5 -12.5,46 0,0 -14,18.5 -33.5,30.5 0,0 71.5,-7.5 77.5,27 0,0 6,25 -13,45.5 0,0 -25.5,25 -31,40.5 0,0 -12.5,25.5 -43.5,24.5 0,0 -33.5,2 -58.5,-42.5 0,0 1.5,36 36,89.5 0,0 14,18 -3.5,20 0,0 -25.5,4 -42.5,-10.5 0,0 -22,-24.5 -19.5,-76.5 0,0 -25,46.5 -48.5,34 0,0 -8,-1.5 -20,-16 0,0 -11,-16 -28,-22 0,0 -10,-5.5 -19.5,-10 0,0 -35,-19.5 -4,-51 0,0 23,-23.5 41.5,-27.5 0,0 -51.5,-2 -66.5,-21 0,0 -17,-13.5 -2.5,-40.5 0,0 4,-11.5 20,-22.5 0,0 20.5,-20 24,-32.5 0,0 14,-37 40,-39 0,0 37.5,-3 61,73.5 z" />
</g><g
     transform="matrix(0.87226405,-0.4890352,0.4890352,0.87226405,-90.56916,155.51363)"
     id="Layer_3">
	<path
   sodipodi:nodetypes="cccccccccccccccccccccccccccccccccccccc"
   style="fill:#0e9e49"
   inkscape:connector-curvature="0"
   id="path8"
   d="m 250,217.5 c 0,0 -17,-83.5 6,-114.5 0,0 17.5,-31 40.5,-17.5 0,0 14,9.5 21.5,16 0,0 13,15.5 29.5,17.5 0,0 34,5.5 33.5,30.5 0,0 3,23 -16.5,42.5 0,0 -25.5,25.5 -65,41.5 0,0 -14,9.5 -1.5,6.5 0,0 29,-18 67.5,-15 0,0 43,-1.5 45,27.5 0,0 4.5,15 -13.5,38.5 0,0 -19.5,19 -23.5,29 0,0 -15,42.5 -52.5,30.5 0,0 -34.5,-7 -52.5,-55 0,0 -5,-14 -5,1 0,0 -6.5,45 35.5,107 0,0 16.5,18.5 -2,16.5 0,0 -25.4661,2.9661 -36.9661,-16.5339 0,0 -21.5339,-36.9661 -10.0339,-90.4661 0,0 4,-16 -6,-1.5 0,0 0.5,15.5 -17,37.5 0,0 -21,31.5 -43.5,12 0,0 -5,-4 -8.5,-9 0,0 -6.5,-15.5 -22,-19.5 0,0 -47.5,-19.5 -38.5,-39 0,0 3,-12 40,-39 0,0 11.5,-12 43,-9.5 0,0 12.5,0.5 17.5,-1.5 0,0 7,-5 -3,-5 0,0 -70,8 -103,-12.5 0,0 -27,-9.5 -9,-42.5 0,0 3,-6.5 16.5,-18 0,0 18.5,-13.5 31,-42.5 0,0 17,-45 51,-18 0,0 36.5,39 44,100 0,0 1.5,17.5 3.5,18 0,0 5.5,4.5 4,-5.5 z" />
</g></g>
</svg>